<svg width="50" height="50" viewBox="0 0 50 50" fill="none" xmlns="http://www.w3.org/2000/svg">
<path d="M31.7749 6.43127C26.1735 8.2253 22.4988 12.6355 20.7507 19.6619C18.1287 30.2014 14.8791 31.5454 4.29993 27.7966C8.09936 34.8145 15.8002 37.6282 20.7507 37.6282C25.7013 37.6282 38.5229 30.7355 37.0538 17.6337C35.7786 13.8177 34.019 10.0836 31.7749 6.43127Z" fill="#D8D8D8"/>
<path d="M31.7749 6.43127C26.1735 8.2253 22.4988 12.6355 20.7507 19.6619C18.1287 30.2014 14.8791 31.5454 4.29993 27.7966C8.09936 34.8145 15.8002 37.6282 20.7507 37.6282C25.7013 37.6282 38.5229 30.7355 37.0538 17.6337C35.7786 13.8177 34.019 10.0836 31.7749 6.43127Z" fill="#559F91"/>
<path d="M35.4478 31.9254L49.2752 45.7754C50.2416 46.7418 50.2416 48.3087 49.2752 49.2752C48.3087 50.2416 46.7418 50.2416 45.7754 49.2752L31.9509 35.428C28.5963 38.0401 24.3788 39.5959 19.7979 39.5959C8.86383 39.5959 0 30.732 0 19.7979C0 8.86383 8.86383 0 19.7979 0C30.732 0 39.5959 8.86383 39.5959 19.7979C39.5959 24.3672 38.0479 28.575 35.4478 31.9254ZM19.7979 34.6464C27.9985 34.6464 34.6464 27.9985 34.6464 19.7979C34.6464 11.5974 27.9985 4.94948 19.7979 4.94948C11.5974 4.94948 4.94948 11.5974 4.94948 19.7979C4.94948 27.9985 11.5974 34.6464 19.7979 34.6464Z" fill="#736758"/>
</svg>
