<svg width="143" height="117" viewBox="0 0 143 117" fill="none" xmlns="http://www.w3.org/2000/svg">
<path fill-rule="evenodd" clip-rule="evenodd" d="M71 0.25C73.071 0.25 74.75 1.92895 74.75 4V9C74.75 11.071 73.071 12.75 71 12.75C68.929 12.75 67.25 11.071 67.25 9V4C67.25 1.92895 68.929 0.25 71 0.25ZM17.25 54C17.25 51.929 18.929 50.25 21 50.25H26C28.071 50.25 29.75 51.929 29.75 54C29.75 56.071 28.071 57.75 26 57.75H21C18.929 57.75 17.25 56.071 17.25 54ZM112.25 54C112.25 51.929 113.929 50.25 116 50.25H121C123.071 50.25 124.75 51.929 124.75 54C124.75 56.071 123.071 57.75 121 57.75H116C113.929 57.75 112.25 56.071 112.25 54Z" fill="#EBBA5C"/>
<path d="M37.25 54C37.25 59.889 38.7605 65.429 41.4133 70.25H21C18.9289 70.25 17.25 71.929 17.25 74C17.25 76.071 18.9289 77.75 21 77.75H67.25V53.0535L63.6515 56.6515C62.187 58.116 59.8128 58.116 58.3484 56.6515C56.8839 55.187 56.8839 52.813 58.3484 51.3485L68.3485 41.3484C69.813 39.8839 72.187 39.8839 73.6515 41.3484L83.6515 51.3485C85.116 52.813 85.116 55.187 83.6515 56.6515C82.187 58.116 79.813 58.116 78.3485 56.6515L74.75 53.0535V77.75H121C123.071 77.75 124.75 76.071 124.75 74C124.75 71.929 123.071 70.25 121 70.25H100.586C103.239 65.429 104.75 59.889 104.75 54C104.75 35.3604 89.6395 20.25 71 20.25C52.3604 20.25 37.25 35.3604 37.25 54Z" fill="#EBBA5C"/>
<path d="M32.9919 15.9919C34.4563 14.5274 36.8307 14.5274 38.2952 15.9919L40.2594 17.9561C41.7238 19.4205 41.7238 21.7949 40.2594 23.2594C38.7949 24.7238 36.4205 24.7238 34.9561 23.2594L32.9919 21.2952C31.5274 19.8307 31.5274 17.4563 32.9919 15.9919Z" fill="#EBBA5C"/>
<path d="M109.004 15.9932C110.469 17.4576 110.469 19.832 109.004 21.2965L107.04 23.2607C105.576 24.7251 103.201 24.7251 101.737 23.2607C100.272 21.7962 100.272 19.4218 101.737 17.9574L103.701 15.9932C105.165 14.5287 107.54 14.5287 109.004 15.9932Z" fill="#EBBA5C"/>
</svg>
