<svg width="143" height="77" viewBox="0 0 143 77" fill="none" xmlns="http://www.w3.org/2000/svg">
<g clip-path="url(#clip0_92_40)">
<path d="M37.25 53C37.25 58.889 38.7605 64.429 41.4133 69.25H21C18.9289 69.25 17.25 70.929 17.25 73C17.25 75.071 18.9289 76.75 21 76.75H67.25V52.0535L63.6515 55.6515C62.187 57.116 59.8128 57.116 58.3484 55.6515C56.8839 54.187 56.8839 51.813 58.3484 50.3485L68.3485 40.3484C69.813 38.8839 72.187 38.8839 73.6515 40.3484L83.6515 50.3485C85.116 51.813 85.116 54.187 83.6515 55.6515C82.187 57.116 79.813 57.116 78.3485 55.6515L74.75 52.0535V76.75H121C123.071 76.75 124.75 75.071 124.75 73C124.75 70.929 123.071 69.25 121 69.25H100.586C103.239 64.429 104.75 58.889 104.75 53C104.75 34.3604 89.6395 19.25 71 19.25C52.3604 19.25 37.25 34.3604 37.25 53Z" fill="#EBBA5C"/>
<path fill-rule="evenodd" clip-rule="evenodd" d="M71 -0.75C73.071 -0.75 74.75 0.92895 74.75 3V8C74.75 10.071 73.071 11.75 71 11.75C68.929 11.75 67.25 10.071 67.25 8V3C67.25 0.92895 68.929 -0.75 71 -0.75ZM17.25 53C17.25 50.929 18.929 49.25 21 49.25H26C28.071 49.25 29.75 50.929 29.75 53C29.75 55.071 28.071 56.75 26 56.75H21C18.929 56.75 17.25 55.071 17.25 53ZM112.25 53C112.25 50.929 113.929 49.25 116 49.25H121C123.071 49.25 124.75 50.929 124.75 53C124.75 55.071 123.071 56.75 121 56.75H116C113.929 56.75 112.25 55.071 112.25 53Z" fill="#EBBA5C"/>
<path d="M32.9919 14.9919C34.4563 13.5274 36.8307 13.5274 38.2952 14.9919L40.2594 16.9561C41.7238 18.4205 41.7238 20.7949 40.2594 22.2594C38.7949 23.7238 36.4205 23.7238 34.9561 22.2594L32.9919 20.2952C31.5274 18.8307 31.5274 16.4563 32.9919 14.9919Z" fill="#EBBA5C"/>
<path d="M109.004 14.9932C110.469 16.4577 110.469 18.8321 109.004 20.2965L107.04 22.2607C105.576 23.7252 103.201 23.7252 101.737 22.2607C100.272 20.7962 100.272 18.4219 101.737 16.9574L103.701 14.9932C105.165 13.5288 107.54 13.5288 109.004 14.9932Z" fill="#EBBA5C"/>
</g>
<defs>
<clipPath id="clip0_92_40">
<rect width="143" height="77" fill="white"/>
</clipPath>
</defs>
</svg>
