<svg width="144" height="126" viewBox="0 0 144 126" fill="none" xmlns="http://www.w3.org/2000/svg">
<path fill-rule="evenodd" clip-rule="evenodd" d="M72 0.25C74.071 0.25 75.75 1.92895 75.75 4V9C75.75 11.071 74.071 12.75 72 12.75C69.929 12.75 68.25 11.071 68.25 9V4C68.25 1.92895 69.929 0.25 72 0.25ZM18.25 54C18.25 51.929 19.929 50.25 22 50.25H27C29.071 50.25 30.75 51.929 30.75 54C30.75 56.071 29.071 57.75 27 57.75H22C19.929 57.75 18.25 56.071 18.25 54ZM113.25 54C113.25 51.929 114.929 50.25 117 50.25H122C124.071 50.25 125.75 51.929 125.75 54C125.75 56.071 124.071 57.75 122 57.75H117C114.929 57.75 113.25 56.071 113.25 54Z" fill="#EB7E5C"/>
<path fill-rule="evenodd" clip-rule="evenodd" d="M101.586 70.25H42.4134H22C19.929 70.25 18.25 71.929 18.25 74C18.25 76.071 19.929 77.75 22 77.75H122C124.071 77.75 125.75 76.071 125.75 74C125.75 71.929 124.071 70.25 122 70.25H101.586Z" fill="#EB7E5C"/>
<path d="M38.25 53.999C38.25 59.888 39.7605 65.428 42.4134 70.249H101.586C104.239 65.428 105.75 59.888 105.75 53.999C105.75 36.627 92.625 22.3205 75.75 20.4551H68.25C51.3752 22.3205 38.25 36.627 38.25 53.999Z" fill="#EB7E5C"/>
<path d="M69.3485 58.205C70.813 59.6695 73.187 59.6695 74.6515 58.205L84.6515 48.205C86.116 46.7405 86.116 44.366 84.6515 42.9016C83.187 41.4372 80.813 41.4372 79.3485 42.9016L75.75 46.5V20.4538C73.514 20.1112 69.8185 20.311 68.25 20.4538V46.5L64.6515 42.9016C63.187 41.4372 60.8128 41.4372 59.3484 42.9016C57.8839 44.366 57.8839 46.7405 59.3484 48.205L69.3485 58.205Z" fill="#F4F1E2"/>
<path d="M33.9919 15.9919C35.4564 14.5274 37.8308 14.5274 39.2952 15.9919L41.2594 17.9561C42.7239 19.4205 42.7239 21.7949 41.2594 23.2594C39.7949 24.7238 37.4206 24.7238 35.9561 23.2594L33.9919 21.2952C32.5274 19.8307 32.5274 17.4563 33.9919 15.9919Z" fill="#EB7E5C"/>
<path d="M110.005 15.9932C111.469 17.4576 111.469 19.832 110.005 21.2965L108.04 23.2607C106.576 24.7251 104.202 24.7251 102.737 23.2607C101.273 21.7962 101.273 19.4218 102.737 17.9574L104.701 15.9932C106.165 14.5287 108.54 14.5287 110.005 15.9932Z" fill="#EB7E5C"/>
</svg>
